<?xml version="1.0" encoding="UTF-8"?>
<svg version="1.1" xmlns="http://www.w3.org/2000/svg" width="512" height="512">
<path d="M0 0 C1.67194679 -0.00472824 1.67194679 -0.00472824 3.37767029 -0.009552 C4.59116653 -0.00752777 5.80466278 -0.00550354 7.05493164 -0.00341797 C8.91016197 -0.00485306 8.91016197 -0.00485306 10.8028717 -0.00631714 C14.09831475 -0.00717444 17.39371111 -0.00313412 20.68914795 0.00244141 C22.71140037 0.00439098 24.73360935 0.00245067 26.75585938 -0.00097656 C30.62640414 -0.00713646 34.49688423 -0.00640967 38.36743164 -0.00341797 C40.18463966 -0.00645432 40.18463966 -0.00645432 42.03855896 -0.009552 C43.71523399 -0.00482376 43.71523399 -0.00482376 45.42578125 0 C46.90684608 0.00119339 46.90684608 0.00119339 48.41783142 0.00241089 C50.77758789 0.12939453 50.77758789 0.12939453 52.77758789 1.12939453 C54.06114169 6.69812161 53.9225442 12.66819299 53.90457153 18.35993958 C53.90613152 19.13659853 53.90769151 19.91325749 53.90929878 20.71345156 C53.91325338 23.28807292 53.91014088 25.86263418 53.90698242 28.43725586 C53.90833887 30.29413894 53.91012017 32.15102175 53.91229248 34.00790405 C53.91683626 39.03021352 53.91509026 44.05250236 53.91191339 49.07481217 C53.90937588 54.33533167 53.91173103 59.59584945 53.91329956 64.85636902 C53.91511639 73.68362749 53.91272686 82.51087757 53.90795898 91.33813477 C53.90250887 101.54644687 53.90428641 111.75473903 53.90978539 121.96305066 C53.91432032 130.73265053 53.91496545 139.50224438 53.91234672 148.27184504 C53.91078713 153.50774411 53.91058168 158.74363378 53.91388321 163.97953224 C53.91676771 168.8969415 53.91477553 173.81432495 53.90898895 178.73173141 C53.90766484 180.53773518 53.90804958 182.34374112 53.91025162 184.14974403 C53.91297653 186.61111476 53.90956557 189.0724023 53.90457153 191.5337677 C53.90680225 192.25136648 53.90903298 192.96896527 53.9113313 193.70830947 C53.89794247 197.10089591 53.60940951 199.80210807 52.77758789 203.12939453 C33.30758789 203.12939453 13.83758789 203.12939453 -6.22241211 203.12939453 C-7.34773077 190.7508893 -7.34773077 190.7508893 -7.35180664 186.375 C-7.35491348 185.36040207 -7.35802032 184.34580414 -7.36122131 183.30046082 C-7.3592424 182.21018082 -7.35726349 181.11990082 -7.35522461 179.99658203 C-7.3565892 178.78613724 -7.3579538 177.57569244 -7.35935974 176.3285675 C-7.36106139 172.93881898 -7.35767288 169.54915774 -7.35118484 166.15942001 C-7.34738926 163.99134003 -7.34533239 161.82326452 -7.34371948 159.65518188 C-7.31606442 127.62817227 -7.0771452 95.60155313 -6.83213735 63.57558751 C-6.79492885 58.69466985 -6.75991424 53.81373939 -6.72564697 48.93280029 C-6.67878225 42.28324619 -6.62611616 35.63375404 -6.56959724 28.98427391 C-6.5491507 26.49352508 -6.53037419 24.00276195 -6.51330376 21.51198769 C-6.48943585 18.08776773 -6.45942121 14.66365717 -6.42773438 11.23950195 C-6.42197954 10.22148939 -6.41622471 9.20347683 -6.41029549 8.1546154 C-6.40050604 7.23643091 -6.39071659 6.31824642 -6.38063049 5.37223816 C-6.37417794 4.57178164 -6.36772539 3.77132513 -6.36107731 2.94661236 C-6.06490926 -0.93469205 -3.2661798 0.00263389 0 0 Z " fill="cyan" transform="translate(232.222412109375,124.87060546875)"/>
<path d="M0 0 C6.6 0 13.2 0 20 0 C23.44722262 8.079806 26.55629186 16.18215898 29.375 24.5 C32.62710622 34.09233584 32.62710622 34.09233584 36.1015625 43.60546875 C39.85779841 53.56753695 42.06117033 62.26460696 42 73 C42.00860476 74.84875821 42.0173457 76.69751641 42.02787781 78.54626465 C42.07232264 86.69791923 42.05141737 94.84836928 42 103 C41.01 103.33 40.02 103.66 39 104 C36.72184481 102.622793 34.6774139 101.22297942 32.5625 99.625 C31.63087036 98.94087036 31.63087036 98.94087036 30.68041992 98.24291992 C27.69933187 96.04634873 24.74756942 93.81136474 21.796875 91.57421875 C16.07012959 87.23418525 10.30826737 83.16724217 4.1796875 79.41015625 C2 78 2 78 0 76 C-0.18769518 73.56062946 -0.25198605 71.23585272 -0.22705078 68.79638672 C-0.22734283 68.0548233 -0.22763489 67.31325989 -0.22793579 66.54922485 C-0.22653994 64.09259429 -0.21096698 61.63626522 -0.1953125 59.1796875 C-0.19158327 57.47860886 -0.18873587 55.77752808 -0.18673706 54.07644653 C-0.17909349 49.59489024 -0.15943884 45.11346317 -0.1373291 40.63195801 C-0.11688622 36.06064604 -0.10773868 31.48931323 -0.09765625 26.91796875 C-0.07619357 17.94524653 -0.04100559 8.97265422 0 0 Z " fill="cyan" transform="translate(261,402)"/>
<path d="M0 0 C0.83265381 0.00523682 1.66530762 0.01047363 2.52319336 0.01586914 C3.42231445 0.0190918 4.32143555 0.02231445 5.24780273 0.02563477 C6.66609375 0.03820312 6.66609375 0.03820312 8.11303711 0.05102539 C9.06243164 0.05553711 10.01182617 0.06004883 10.98999023 0.06469727 C13.34356776 0.07652429 15.69702188 0.09300514 18.05053711 0.11352539 C18.28274158 9.88401544 18.46016905 19.6538443 18.56865883 29.42653656 C18.62074392 33.96512129 18.69132028 38.50181206 18.80493164 43.03930664 C18.91398939 47.42261698 18.97345855 51.80411219 18.99930954 56.18867493 C19.01771779 57.85700557 19.05366993 59.52524214 19.10783768 61.1927948 C19.51398755 74.22014151 19.51398755 74.22014151 15.89837646 78.89794922 C12.20412418 81.92472085 8.30101886 83.99495999 4.05053711 86.11352539 C2.58464508 87.12334699 1.14054591 88.16522885 -0.28540039 89.23071289 C-1.51129883 90.14143555 -1.51129883 90.14143555 -2.76196289 91.07055664 C-3.60758789 91.70348633 -4.45321289 92.33641602 -5.32446289 92.98852539 C-8.52392784 95.37581847 -11.73087149 97.75208217 -14.94946289 100.11352539 C-15.55435547 100.56630859 -16.15924805 101.0190918 -16.7824707 101.4855957 C-18.36352539 102.62133789 -18.36352539 102.62133789 -20.94946289 104.11352539 C-21.93946289 103.78352539 -22.92946289 103.45352539 -23.94946289 103.11352539 C-23.9548612 97.01536209 -23.92037989 90.91907004 -23.85180664 84.82128906 C-23.83384264 82.75494733 -23.82604181 80.68848748 -23.8293457 78.62207031 C-23.8418956 65.69254028 -22.80220584 54.90973663 -17.7208252 42.97061157 C-16.53380343 40.11280831 -15.55917824 37.18934974 -14.57055664 34.25805664 C-14.20897461 33.20996826 -13.84739258 32.16187988 -13.47485352 31.08203125 C-12.93634766 29.51980835 -12.93634766 29.51980835 -12.38696289 27.92602539 C-7.11085279 12.66631789 -7.11085279 12.66631789 -4.94946289 6.55102539 C-4.57821289 5.49786133 -4.20696289 4.44469727 -3.82446289 3.35961914 C-2.57406746 0.14989873 -2.57406746 0.14989873 0 0 Z " fill="cyan" transform="translate(231.949462890625,401.886474609375)"/>
<path d="M0 0 C19.47 0 38.94 0 59 0 C60.19726522 2.39453045 60.12919033 3.88621068 60.1328125 6.55859375 C60.13482666 7.4930835 60.13684082 8.42757324 60.13891602 9.39038086 C60.13432373 10.39593018 60.12973145 11.40147949 60.125 12.4375 C60.12234131 13.46560791 60.11968262 14.49371582 60.11694336 15.55297852 C60.04245882 27.77881393 59.51665314 39.86677492 58 52 C39.19 52 20.38 52 1 52 C-0.12539155 41.87147601 -0.12539155 41.87147601 -0.22119141 38.24633789 C-0.24436432 37.43262222 -0.26753723 36.61890656 -0.29141235 35.78053284 C-0.3112619 34.93643356 -0.33111145 34.09233429 -0.3515625 33.22265625 C-0.37471527 32.33009628 -0.39786804 31.43753632 -0.42172241 30.51792908 C-0.46897699 28.64994064 -0.51425242 26.78190115 -0.55761719 24.91381836 C-0.62539353 22.04584754 -0.70299771 19.17824885 -0.78125 16.31054688 C-0.82611146 14.48959779 -0.87040299 12.66863455 -0.9140625 10.84765625 C-0.93796051 9.98938736 -0.96185852 9.13111847 -0.98648071 8.24684143 C-1.11470108 2.22940216 -1.11470108 2.22940216 0 0 Z " fill="cyan" transform="translate(226,339)"/>
<path d="M0 0 C3.56623845 2.3774923 4.23468747 4.08353299 6.03125 7.93359375 C6.30843872 8.5261647 6.58562744 9.11873566 6.87121582 9.72926331 C7.45691765 10.98740286 8.0383177 12.24755267 8.61572266 13.50952148 C9.48512916 15.40507729 10.37220781 17.29154548 11.26171875 19.17773438 C17.83611925 33.26756264 19.41710425 44.79046929 19.1875 60.1875 C19.125625 66.065625 19.06375 71.94375 19 78 C6.79 78 -5.42 78 -18 78 C-18.061875 72.3075 -18.12375 66.615 -18.1875 60.75 C-18.21481201 58.97979492 -18.24212402 57.20958984 -18.27026367 55.38574219 C-18.41666468 40.0650829 -14.67505447 28.43139362 -7.875 14.8125 C-7.221644 13.47901111 -6.56929391 12.14502888 -5.91796875 10.81054688 C-1.20460678 1.20460678 -1.20460678 1.20460678 0 0 Z " fill="cyan" transform="translate(255,8)"/>
<path d="M0 0 C8.59750685 8.59750685 15.78082542 18.24396689 23 28 C23.52907959 28.59337158 24.05815918 29.18674316 24.60327148 29.7980957 C26.41281338 32.650789 26.3443956 34.4994877 26.29296875 37.859375 C26.28172974 39.36709473 26.28172974 39.36709473 26.27026367 40.90527344 C26.24295166 42.1740332 26.21563965 43.44279297 26.1875 44.75 C26.125625 48.7925 26.06375 52.835 26 57 C17.42 57 8.84 57 0 57 C0 38.19 0 19.38 0 0 Z " fill="cyan" transform="translate(297,298)"/>
<path d="M0 0 C0.33 0 0.66 0 1 0 C1 18.81 1 37.62 1 57 C-7.58 57 -16.16 57 -25 57 C-26.91986092 32.04180805 -26.91986092 32.04180805 -18.625 22.25 C-16.7382538 20.11480132 -14.81726821 18.02983858 -12.84326172 15.97509766 C-10.04586173 12.97761873 -7.62923402 9.72554288 -5.1875 6.4375 C-1.11170213 1.11170213 -1.11170213 1.11170213 0 0 Z " fill="cyan" transform="translate(213,298)"/>
<path d="M0 0 C13.53 0 27.06 0 41 0 C47 14 47 14 47 17 C29.51 17 12.02 17 -6 17 C-5 12 -5 12 0 0 Z " fill="cyan" transform="translate(235,97)"/>
</svg>
