<?xml version="1.0" encoding="UTF-8"?>
<svg version="1.1" xmlns="http://www.w3.org/2000/svg" width="512" height="512">
<path d="M0 0 C0 69.96 0 139.92 0 212 C-19 211 -19 211 -24.61328125 210.61328125 C-39.12257195 209.6379804 -53.33775046 210.59341708 -67.80053711 211.80053711 C-71.20811766 212.0129746 -74.586689 212.03257439 -78 212 C-79.09378865 207.58711145 -79.14010342 203.2805716 -79.12698364 198.76367188 C-79.12854363 197.93805 -79.13010362 197.11242813 -79.13171089 196.26178741 C-79.13569704 193.49742341 -79.13254046 190.7331144 -79.12939453 187.96875 C-79.13074963 185.98600228 -79.13253017 184.00325481 -79.13470459 182.02050781 C-79.13926601 176.6363361 -79.13749465 171.25218353 -79.1343255 165.86801147 C-79.13179526 160.23557483 -79.1341413 154.60313983 -79.13571167 148.97070312 C-79.13753141 139.51171575 -79.13513215 130.05273619 -79.13037109 120.59375 C-79.12492885 109.65504582 -79.12669164 98.71636028 -79.1321975 87.77765656 C-79.13673416 78.38901866 -79.13737646 69.00038638 -79.13475883 59.61174774 C-79.13319911 54.00296218 -79.13299397 48.39418539 -79.13629532 42.78540039 C-79.13918204 37.51264574 -79.13718353 32.23991514 -79.13140106 26.96716309 C-79.13007778 25.03096558 -79.13046028 23.09476604 -79.13266373 21.15856934 C-79.13539213 18.51779485 -79.13197331 15.87709767 -79.12698364 13.23632812 C-79.12921436 12.46833138 -79.13144509 11.70033463 -79.13374341 10.90906525 C-79.11993672 7.14723957 -78.9065434 3.65744788 -78 0 C-53.05762036 -7.78504577 -24.94250212 -8.31416737 0 0 Z " fill="limegreen" transform="translate(295,146)"/>
<path d="M0 0 C1.75679077 0.00012085 1.75679077 0.00012085 3.54907227 0.00024414 C29.28575802 0.16518951 29.28575802 0.16518951 41.375 3.1875 C41.375 34.8675 41.375 66.5475 41.375 99.1875 C37.88821216 100.34976261 34.7749588 100.31990097 31.1496582 100.30102539 C30.41770233 100.30117142 29.68574646 100.30131744 28.93161011 100.3014679 C26.51297031 100.3007714 24.09440759 100.29299128 21.67578125 100.28515625 C19.99855084 100.28329114 18.32131989 100.28186767 16.64408875 100.28086853 C12.22999568 100.2770507 7.81593553 100.26722666 3.40185547 100.25616455 C-1.10253453 100.24593467 -5.60692985 100.24136753 -10.11132812 100.23632812 C-18.94923321 100.22560375 -27.78711387 100.20853611 -36.625 100.1875 C-37.92330721 96.29257836 -37.76422973 92.60009041 -37.75439453 88.54101562 C-37.75614685 87.6578215 -37.75789917 86.77462738 -37.75970459 85.8646698 C-37.76411106 82.94100996 -37.76118933 80.01741047 -37.7578125 77.09375 C-37.75848588 75.06498198 -37.7594562 73.03621403 -37.76071167 71.00744629 C-37.76218701 66.75381706 -37.76003932 62.50020882 -37.75537109 58.24658203 C-37.74967391 52.78878356 -37.75295379 47.33103427 -37.75894356 41.87323761 C-37.76255357 37.68344755 -37.76140855 33.49366919 -37.75881577 29.30387878 C-37.75814772 27.29119359 -37.75897067 25.27850733 -37.76129532 23.26582336 C-37.76382902 20.45518167 -37.75997103 17.64462009 -37.75439453 14.83398438 C-37.75641876 13.99856613 -37.75844299 13.16314789 -37.76052856 12.30241394 C-37.74839051 9.00738703 -37.6744008 6.33570239 -36.625 3.1875 C-34.31266933 2.87370546 -32.00014733 2.56144534 -29.6875 2.25 C-28.39972656 2.07597656 -27.11195313 1.90195312 -25.78515625 1.72265625 C-24.39850603 1.54373894 -23.01178581 1.36536334 -21.625 1.1875 C-20.94244141 1.09412354 -20.25988281 1.00074707 -19.55664062 0.90454102 C-13.03936881 0.07950422 -6.56367658 -0.00424345 0 0 Z " fill="limegreen" transform="translate(253.625,398.8125)"/>
<path d="M0 0 C3.5578007 1.41709011 4.79256329 2.85820005 6.5 6.25 C7.83853299 8.87280112 9.19700589 11.28786815 10.86328125 13.72265625 C23.24946812 32.72084781 31.32982266 56.71255213 35 79 C35.30164063 80.62615234 35.30164063 80.62615234 35.609375 82.28515625 C36.50654551 87.2741517 37.09714602 91.918516 37 97 C35.73671875 96.7834375 34.4734375 96.566875 33.171875 96.34375 C13.33651002 93.1715224 -7.18268117 92.19344756 -27 96 C-28.62321795 96.22179104 -30.24809348 96.43211933 -31.875 96.625 C-32.90625 96.74875 -33.9375 96.8725 -35 97 C-35.65239188 67.51188705 -21.4078651 23.06997481 -1.26953125 1.11328125 C-0.85058594 0.74589844 -0.43164062 0.37851563 0 0 Z " fill="limegreen" transform="translate(255,11)"/>
<path d="M0 0 C0.66 0 1.32 0 2 0 C2.02332772 19.14914647 2.04097855 38.29829006 2.05181217 57.44744778 C2.0569754 66.33809826 2.0640186 75.22873994 2.07543945 84.11938477 C2.08538548 91.86561227 2.09185323 99.61183339 2.09408849 107.3580671 C2.09539574 111.46220919 2.09848247 115.56633302 2.10573006 119.67046928 C2.11248899 123.5289464 2.11461722 127.38739765 2.11310768 131.24588013 C2.11338407 132.6661245 2.11538995 134.08636969 2.11920547 135.50660896 C2.12414067 137.4374187 2.12239803 139.36824215 2.12025452 141.29905701 C2.12117631 142.38216376 2.1220981 143.46527052 2.12304783 144.58119869 C2 147 2 147 1 148 C-3.47268963 148.281489 -7.95700735 148.23181434 -12.4375 148.25 C-13.70400391 148.270625 -14.97050781 148.29125 -16.27539062 148.3125 C-17.48259766 148.31765625 -18.68980469 148.3228125 -19.93359375 148.328125 C-21.04790771 148.3374707 -22.16222168 148.34681641 -23.31030273 148.35644531 C-24.19790283 148.23881836 -25.08550293 148.12119141 -26 148 C-28.07003924 144.89494114 -28.25787807 144.16388785 -28.31452942 140.63334656 C-28.33317551 139.74072617 -28.35182159 138.84810577 -28.37103271 137.92843628 C-28.38112366 136.95133698 -28.3912146 135.97423767 -28.40161133 134.9675293 C-28.4195726 133.9361937 -28.43753387 132.90485809 -28.45603943 131.8422699 C-28.51087874 128.41962383 -28.54877043 124.99714 -28.58203125 121.57421875 C-28.59392675 120.40292734 -28.60582226 119.23163593 -28.61807823 118.02485085 C-28.6774369 111.81665357 -28.7212388 105.60853144 -28.75512695 99.40014648 C-28.78619378 94.27720205 -28.84870429 89.15616013 -28.93969727 84.03393555 C-29.04968691 77.83806296 -29.10478379 71.64392707 -29.12152672 65.44712257 C-29.13672788 63.09444363 -29.17060178 60.74180301 -29.22416115 58.38968468 C-29.69634943 36.42616266 -29.69634943 36.42616266 -21.20636463 27.14837933 C-19.82477779 25.74506916 -18.41304069 24.37163319 -17 23 C-14.31571847 19.78800752 -12.14780245 16.5832415 -10 13 C-8.36758119 10.68629691 -6.65907986 8.43532698 -4.9375 6.1875 C-4.49083984 5.59001953 -4.04417969 4.99253906 -3.58398438 4.37695312 C-2.43864491 2.87893813 -1.22425256 1.43424443 0 0 Z " fill="limegreen" transform="translate(208,187)"/>
<path d="M0 0 C3.54702062 1.18234021 4.28326189 2.31379426 6.5 5.25 C7.0878125 6.01828125 7.675625 6.7865625 8.28125 7.578125 C10 10 10 10 11.27734375 12.23046875 C14.42311035 17.28794838 18.2932215 21.8352485 21.99414062 26.49414062 C22.60580078 27.27080078 23.21746094 28.04746094 23.84765625 28.84765625 C24.6830896 29.8996521 24.6830896 29.8996521 25.53540039 30.97290039 C28.12662347 34.559319 29.25024723 37.19723716 29.24723816 41.65031433 C29.25143265 42.57992477 29.25562714 43.50953522 29.25994873 44.46731567 C29.25151947 45.98625931 29.25151947 45.98625931 29.24291992 47.53588867 C29.24481827 48.60775925 29.24671661 49.67962982 29.24867249 50.78398132 C29.25237891 54.32871806 29.24167956 57.87325021 29.23046875 61.41796875 C29.22927699 63.87608313 29.22882378 66.33419797 29.2290802 68.79231262 C29.22751567 73.94286959 29.21922682 79.09335701 29.20581055 84.24389648 C29.18879402 90.86210337 29.18499697 97.48023399 29.18575573 104.0984602 C29.18548451 109.17259964 29.18001152 114.24672224 29.17275429 119.32085609 C29.1695618 121.76222926 29.16759887 124.20360434 29.16686058 126.64497948 C29.16470466 130.04745141 29.15597751 133.44984061 29.14526367 136.85229492 C29.14594345 138.3803476 29.14594345 138.3803476 29.14663696 139.93927002 C29.14237198 140.86042099 29.13810699 141.78157196 29.13371277 142.7306366 C29.13203692 143.53569736 29.13036108 144.34075811 29.12863445 145.17021465 C29 147 29 147 28 148 C26.01242972 148.09983058 24.0213248 148.13080753 22.03125 148.1328125 C20.82082031 148.13410156 19.61039062 148.13539063 18.36328125 148.13671875 C17.08839844 148.13285156 15.81351562 148.12898437 14.5 148.125 C12.58767578 148.13080078 12.58767578 148.13080078 10.63671875 148.13671875 C8.82107422 148.13478516 8.82107422 148.13478516 6.96875 148.1328125 C5.84919922 148.13168457 4.72964844 148.13055664 3.57617188 148.12939453 C1 148 1 148 0 147 C-0.0965683 145.10171764 -0.12187216 143.19979337 -0.12025452 141.29905701 C-0.12162918 140.0608017 -0.12300385 138.82254639 -0.12442017 137.54676819 C-0.12088056 136.16195655 -0.11724574 134.77714515 -0.11352539 133.39233398 C-0.11324352 131.94392906 -0.11340124 130.49552399 -0.1139679 129.04711914 C-0.11425589 125.10307686 -0.1083588 121.15906473 -0.10139394 117.21502948 C-0.09516078 113.09770531 -0.09455663 108.98038052 -0.09336853 104.86305237 C-0.0902551 97.06094138 -0.08204156 89.25884433 -0.07201904 81.45673949 C-0.06085826 72.57659696 -0.05534754 63.69645378 -0.05032361 54.81630599 C-0.03985896 36.54419608 -0.02225929 18.27209916 0 0 Z " fill="limegreen" transform="translate(302,187)"/>
<path d="M0 0 C0.99 0.33 1.98 0.66 3 1 C3.02312079 14.28187409 3.04091374 27.56374343 3.05181217 40.84563351 C3.05704158 47.0122492 3.06414027 53.17885118 3.07543945 59.34545898 C3.08626629 65.29116006 3.0922764 71.23684789 3.09487724 77.18255806 C3.09673186 79.45646943 3.10035317 81.73038004 3.10573006 84.00428581 C3.11293778 87.1772712 3.11399106 90.35020117 3.11352539 93.52319336 C3.11712067 94.47337341 3.12071594 95.42355347 3.12442017 96.40252686 C3.11405216 102.88594784 3.11405216 102.88594784 2 104 C-0.8843382 104.08865208 -3.74462158 104.11521296 -6.62890625 104.09765625 C-7.92525246 104.09553383 -7.92525246 104.09553383 -9.24778748 104.09336853 C-12.01939292 104.08775239 -14.7909188 104.07519719 -17.5625 104.0625 C-19.4368478 104.05748708 -21.31119685 104.05292381 -23.18554688 104.04882812 C-27.79039544 104.03777772 -32.39518421 104.0205023 -37 104 C-41.24998374 95.50003252 -39.70371439 79.3326337 -36.91455078 70.60253906 C-34.32753471 64.62263997 -31.08489346 59.08294171 -27.60571289 53.58398438 C-23.41498232 46.84007494 -19.81074874 39.74727721 -16.3125 32.625 C-12.53881013 24.98576381 -8.58700021 17.44458281 -4.59301758 9.91845703 C-4.14079834 9.0623584 -3.6885791 8.20625977 -3.22265625 7.32421875 C-2.81797119 6.56197998 -2.41328613 5.79974121 -1.99633789 5.0144043 C-0.8847832 2.88291557 -0.8847832 2.88291557 0 0 Z " fill="limegreen" transform="translate(207,364)"/>
<path d="M0 0 C0.66 0 1.32 0 2 0 C2.26103516 0.49701416 2.52207031 0.99402832 2.79101562 1.50610352 C4.02686321 3.85848854 5.26334824 6.21053763 6.5 8.5625 C6.95487793 9.42786377 7.40975586 10.29322754 7.87841797 11.18481445 C10.28695128 15.76203937 12.7086582 20.33141676 15.1574707 24.88720703 C18.48787095 31.08412134 21.67366721 37.3350728 24.77636719 43.64892578 C28.0582799 50.25597639 31.65570591 56.68464271 35.31958008 63.08666992 C40.29184299 71.92357085 41.30230169 79.19578872 41.1875 89.25 C41.18685547 90.33796875 41.18621094 91.4259375 41.18554688 92.546875 C41.14082166 100.57753501 41.14082166 100.57753501 40 104 C34.46411467 104.02464775 28.928261 104.04283496 23.39233398 104.05493164 C21.5075627 104.05997244 19.62279535 104.06680498 17.73803711 104.07543945 C15.03498364 104.08751617 12.33198169 104.09323068 9.62890625 104.09765625 C8.78099014 104.10281754 7.93307404 104.10797882 7.0594635 104.11329651 C5.03928932 104.11349195 3.01922066 104.06206211 1 104 C0 103 0 103 -0.12304783 101.268363 C-0.12212604 100.50972737 -0.12120424 99.75109175 -0.12025452 98.96946716 C-0.12162918 98.10143463 -0.12300385 97.2334021 -0.12442017 96.33906555 C-0.12082489 95.37953476 -0.11722961 94.42000397 -0.11352539 93.43139648 C-0.11367142 92.42663269 -0.11381744 91.4218689 -0.1139679 90.38665771 C-0.1132683 87.04811483 -0.10547374 83.70962695 -0.09765625 80.37109375 C-0.09579224 78.06323782 -0.09436826 75.75538149 -0.09336853 73.44752502 C-0.08954204 67.35982174 -0.07971065 61.27214214 -0.06866455 55.18444824 C-0.05845323 48.97778646 -0.05387151 42.77112087 -0.04882812 36.56445312 C-0.0380885 24.37629165 -0.02101052 12.18814779 0 0 Z " fill="limegreen" transform="translate(302,364)"/>
<path d="M0 0 C1.21880859 0.00008057 2.43761719 0.00016113 3.69335938 0.00024414 C15.62862452 0.07441017 28.05109112 0.27839778 39.6875 3.1875 C39.6875 13.0875 39.6875 22.9875 39.6875 33.1875 C36.49001813 34.78624093 33.18381814 33.72498994 29.7421875 33.265625 C20.07434123 32.08825158 10.54145772 31.8764926 0.8125 31.9375 C-0.42128387 31.94015869 -0.42128387 31.94015869 -1.67999268 31.94287109 C-13.9809103 31.97393175 -26.12013237 32.43230055 -38.3125 34.1875 C-39.49385474 27.70400193 -39.42572974 21.32535493 -39.375 14.75 C-39.37048828 13.63689453 -39.36597656 12.52378906 -39.36132812 11.37695312 C-39.34961193 8.64707899 -39.33320699 5.91731826 -39.3125 3.1875 C-36.85436544 2.87337114 -34.39600879 2.56117571 -31.9375 2.25 C-31.25816406 2.16298828 -30.57882813 2.07597656 -29.87890625 1.98632812 C-27.69117814 1.71030635 -25.50225911 1.44690332 -23.3125 1.1875 C-22.55267822 1.09412354 -21.79285645 1.00074707 -21.01000977 0.90454102 C-14.00503044 0.11293354 -7.04531806 -0.00437175 0 0 Z " fill="limegreen" transform="translate(255.3125,361.8125)"/>
<path d="M0 0 C0.36676073 3.0611278 0.71615254 6.12400085 1.0625 9.1875 C1.16626953 10.05181641 1.27003906 10.91613281 1.37695312 11.80664062 C1.51713867 13.06831055 1.51713867 13.06831055 1.66015625 14.35546875 C1.74918213 15.12528076 1.83820801 15.89509277 1.92993164 16.68823242 C2.00806828 19.26619702 1.59050606 21.49664154 1 24 C0.2565332 23.87882812 -0.48693359 23.75765625 -1.25292969 23.6328125 C-26.0484439 19.65941731 -47.85852593 19.09090906 -72.5703125 23.66015625 C-73.77300781 23.82837891 -73.77300781 23.82837891 -75 24 C-76 23 -76 23 -76.02172852 20.77514648 C-75.97459717 19.81680908 -75.92746582 18.85847168 -75.87890625 17.87109375 C-75.83056641 16.83662109 -75.78222656 15.80214844 -75.73242188 14.73632812 C-75.67634766 13.64771484 -75.62027344 12.55910156 -75.5625 11.4375 C-75.51029297 10.34501953 -75.45808594 9.25253906 -75.40429688 8.12695312 C-75.27415852 5.41770924 -75.13917946 2.70879206 -75 0 C-52.9831341 -6.03154229 -21.55357945 -10.1376754 0 0 Z " fill="limegreen" transform="translate(293,115)"/>
</svg>
