<?xml version="1.0" encoding="UTF-8"?>
<svg version="1.1" xmlns="http://www.w3.org/2000/svg" width="512" height="512">
<path d="M0 0 C18.49180606 9.33770632 31.2716903 26.82313488 38 46 C41.09771052 55.96573672 41.52853955 65.6450586 41.50097656 75.98413086 C41.49999988 78.56280842 41.54186059 81.13854279 41.5859375 83.71679688 C41.65676324 93.52021046 40.81931304 101.21650147 36 110 C35.16082031 111.63582031 35.16082031 111.63582031 34.3046875 113.3046875 C33.83289063 114.15289062 33.36109375 115.00109375 32.875 115.875 C26.37810162 128.84525677 26.54915079 142.32400524 26.6015625 156.4765625 C26.59953714 158.4199535 26.59662187 160.36334375 26.59286499 162.30673218 C26.58847391 166.34925685 26.59477508 170.39158089 26.60888672 174.43408203 C26.62609202 179.61472071 26.61604593 184.79489689 26.59816933 189.97551918 C26.58734185 193.97491971 26.59077108 197.97420994 26.5985527 201.97361374 C26.60055165 203.8849938 26.59810617 205.79638391 26.59111404 207.70775223 C26.58350406 210.36875397 26.59509199 213.02899635 26.61181641 215.68994141 C26.60270737 216.86967529 26.60270737 216.86967529 26.59341431 218.07324219 C26.63131451 221.32458297 26.77762235 223.60938937 28.40316772 226.46469116 C30.31450047 228.30238326 31.35282206 228.83956497 34 229 C36.66606019 228.00974907 37.71389765 227.5722047 39 225 C39.12027472 222.99902482 39.17737258 220.9941379 39.20532227 218.98974609 C39.22526749 217.72858978 39.24521271 216.46743347 39.26576233 215.1680603 C39.28274665 213.78652063 39.29962546 212.40497966 39.31640625 211.0234375 C39.3369756 209.61381418 39.35797207 208.20419703 39.37937927 206.79458618 C39.43460195 203.08252965 39.48401031 199.37041743 39.53222656 195.65826416 C39.58244018 191.87108397 39.63812697 188.08398474 39.69335938 184.296875 C39.80094333 176.86465188 39.90238773 169.43236148 40 162 C43.64966597 163.7603409 46.85370103 165.9372748 50.125 168.3125 C50.73190674 168.74981445 51.33881348 169.18712891 51.96411133 169.63769531 C53.28410516 170.58940771 54.60316081 171.54242238 55.92138672 172.49658203 C58.0293774 174.02124807 60.14120418 175.54046434 62.25390625 177.05859375 C74.03765822 185.53492484 85.72230693 194.14290357 97.39550781 202.77050781 C106.63804661 209.59965419 115.9038828 216.3920693 125.23071289 223.10571289 C131.4862521 227.61431413 137.69318346 232.18680605 143.89453125 236.76953125 C149.23857676 240.71415404 154.60910781 244.61969056 160 248.5 C166.19654441 252.96020972 172.35974685 257.46261412 178.5 262 C184.74794306 266.61540155 191.01442607 271.20320397 197.3125 275.75 C197.98023438 276.23210937 198.64796875 276.71421875 199.3359375 277.2109375 C200.00496094 277.69304687 200.67398437 278.17515625 201.36328125 278.671875 C202.02156418 279.17403534 202.67984711 279.67619568 203.358078 280.193573 C206.05073698 282.12941781 206.05073698 282.12941781 209.46723938 283.68606567 C214.32146405 286.21113687 218.94349588 288.89700682 220.78482246 294.30505371 C222.00661357 301.31781778 221.6043672 308.42529569 221.3671875 315.5078125 C221.34104743 317.80274394 221.32113231 320.09775397 221.30715942 322.39279175 C221.25392011 328.40859971 221.11661133 334.41960976 220.96130371 340.43353271 C220.8176033 346.58002818 220.7540455 352.72730586 220.68359375 358.875 C220.53383259 370.91876505 220.29517595 382.9589823 220 395 C204.88231074 395.30596539 189.76476502 395.53402413 174.64466 395.67355824 C167.62117428 395.74011979 160.59963007 395.83056372 153.57739258 395.98071289 C146.78202458 396.12593977 139.98865956 396.20000135 133.1918354 396.23340416 C130.61760567 396.25716189 128.04346778 396.30354725 125.47010612 396.37449074 C107.36015063 396.85324253 95.42421681 393.77381977 80.36919975 383.5695858 C76.93712555 381.29584973 73.35450265 379.34551031 69.7265625 377.40625 C68.5200847 376.74354861 67.3143425 376.07950607 66.109375 375.4140625 C64.95953125 374.78242188 63.8096875 374.15078125 62.625 373.5 C60.80342727 372.49779278 58.98205962 371.49521373 57.16073608 370.49255371 C55.54709961 369.60446864 53.93299458 368.71723507 52.31884766 367.83007812 C51.22362793 367.22615234 50.1284082 366.62222656 49 366 C48.21895905 365.71452301 47.43791809 365.42904602 46.63320923 365.13491821 C43.93472312 364.01598173 42.09230385 363.05038786 40 361 C38.69632237 356.58244967 38.88393951 352.2860165 39.0078125 347.7109375 C39.00422786 345.73204816 39.00063011 343.75315874 38.99624443 341.77427101 C39.00133468 339.00942057 39.0475772 336.24581475 39.09332275 333.48138428 C39.16619756 328.6355607 39.1801282 323.78932864 39.18502808 318.94302368 C39.19179434 316.36427293 39.21678418 313.78549463 39.26150513 311.2071228 C39.27076019 310.04226349 39.28001526 308.87740417 39.28955078 307.67724609 C39.30559357 306.65086029 39.32163635 305.62447449 39.33816528 304.56698608 C39.19742091 301.97965821 39.19742091 301.97965821 37.70455933 300.14126587 C35.84838683 298.66361894 35.84838683 298.66361894 32.4375 299.0625 C29.00043462 299.60379849 29.00043462 299.60379849 27.80508423 301.72613525 C26.8674804 304.37428585 26.72128434 306.51009615 26.68115234 309.31933594 C26.66128265 310.38013367 26.64141296 311.4409314 26.62094116 312.53387451 C26.60361435 314.24187225 26.60361435 314.24187225 26.5859375 315.984375 C26.56657135 317.15510559 26.5472052 318.32583618 26.5272522 319.53204346 C26.46747293 323.27128819 26.421077 327.01056374 26.375 330.75 C26.33681876 333.28516968 26.29776695 335.8203264 26.2578125 338.35546875 C26.16177248 344.57020731 26.07773482 350.7850066 26 357 C18.74 357 11.48 357 4 357 C4 369.87 4 382.74 4 396 C-1.28 396 -6.56 396 -12 396 C-12 383.13 -12 370.26 -12 357 C-19.26 357 -26.52 357 -34 357 C-34.01981934 355.41541992 -34.03963867 353.83083984 -34.06005859 352.19824219 C-34.13608277 346.32389326 -34.22480545 340.44979306 -34.31738281 334.57568359 C-34.35568566 332.03243924 -34.3905362 329.48914048 -34.421875 326.94580078 C-34.46749662 323.29179423 -34.52549678 319.63816273 -34.5859375 315.984375 C-34.60326431 314.27637726 -34.60326431 314.27637726 -34.62094116 312.53387451 C-34.64081085 311.47307678 -34.66068054 310.41227905 -34.68115234 309.31933594 C-34.69447601 308.38667908 -34.70779968 307.45402222 -34.7215271 306.49310303 C-35.01902635 303.82966156 -35.47521151 302.20265832 -37 300 C-40.41666667 298.91666667 -40.41666667 298.91666667 -44 299 C-45.815519 300.06865488 -45.815519 300.06865488 -47 302 C-47.47377088 304.68210078 -47.47377088 304.68210078 -47.43237305 307.7565918 C-47.46206429 309.52808846 -47.46206429 309.52808846 -47.49235535 311.33537292 C-47.49874527 312.61044205 -47.50513519 313.88551117 -47.51171875 315.19921875 C-47.52966995 316.50454056 -47.54762115 317.80986237 -47.56611633 319.15473938 C-47.61363053 322.62182596 -47.64343022 326.08884741 -47.66955566 329.55615234 C-47.69935437 333.09550848 -47.74588696 336.63464013 -47.79101562 340.17382812 C-47.87706445 347.11575758 -47.94440254 354.05776174 -48 361 C-48.99530228 361.53719917 -48.99530228 361.53719917 -50.01071167 362.08525085 C-67.14083322 371.3167308 -67.14083322 371.3167308 -84.125 380.8125 C-84.99640625 381.30685547 -85.8678125 381.80121094 -86.765625 382.31054688 C-87.64992187 382.81263672 -88.53421875 383.31472656 -89.4453125 383.83203125 C-90.30088745 384.30055008 -91.1564624 384.76906891 -92.03796387 385.25178528 C-95.02397583 386.93283795 -95.02397583 386.93283795 -97.64172363 389.03190613 C-109.48584926 397.41038475 -122.42133575 396.01393304 -136.3984375 395.78125 C-139.04649167 395.76630606 -141.69437191 395.75453531 -144.34243774 395.74694824 C-150.56510637 395.72224825 -156.78662805 395.65683013 -163.00879538 395.57615232 C-170.10192959 395.48621097 -177.19512346 395.44261749 -184.28868747 395.40258884 C-198.85971207 395.31934383 -213.42983995 395.17895958 -228 395 C-228.32496232 381.74391639 -228.57342106 368.48878583 -228.72537041 355.22952461 C-228.79831718 349.07182885 -228.89717245 342.91686525 -229.05615234 336.76074219 C-229.20873797 330.81473031 -229.29206929 324.87133817 -229.3282814 318.92351913 C-229.35407029 316.65942 -229.40443808 314.39545807 -229.48022079 312.13248062 C-230.03561453 294.85395319 -230.03561453 294.85395319 -226.6337719 290.08453369 C-222.90938577 286.44278434 -218.64831587 284.26040517 -214 282 C-212.42952035 280.92617404 -210.87591434 279.8257596 -209.36328125 278.671875 C-208.69433838 278.18984619 -208.02539551 277.70781738 -207.33618164 277.21118164 C-197.17460225 269.87410206 -187.07930406 262.44956309 -177 255 C-166.9598876 247.57940327 -156.90202492 240.18803961 -146.76928711 232.89428711 C-141.31893063 228.9660112 -135.90316826 224.99287964 -130.5 221 C-123.6229644 215.91794922 -116.70966917 210.88997203 -109.76953125 205.89453125 C-103.51613338 201.38728287 -97.31078721 196.81688902 -91.11206055 192.23486328 C-84.97338257 187.70275064 -78.79263161 183.23177801 -72.59375 178.7824707 C-68.82542596 176.06959532 -65.08679844 173.32494844 -61.38671875 170.51953125 C-60.64897217 169.96023926 -59.91122559 169.40094727 -59.15112305 168.82470703 C-57.74684354 167.7559182 -56.34580215 166.68285755 -54.94848633 165.60498047 C-50.21717914 162 -50.21717914 162 -48 162 C-47.99857498 162.79513504 -47.99714996 163.59027008 -47.99568176 164.40950012 C-47.97785938 171.8994163 -47.93627008 179.38864306 -47.86790943 186.87825489 C-47.83360345 190.72889319 -47.808524 194.57913327 -47.80444336 198.42993164 C-47.80016789 202.14558743 -47.77177012 205.86034438 -47.72656822 209.57571983 C-47.71356873 210.99385024 -47.70929427 212.41208809 -47.71384621 213.83027077 C-47.71873356 215.81506534 -47.68985315 217.79985651 -47.65942383 219.78442383 C-47.64943108 221.47986076 -47.64943108 221.47986076 -47.63923645 223.20954895 C-47.25657253 226.1958988 -47.25657253 226.1958988 -44.62675476 227.92753601 C-42.03483389 229.28094046 -42.03483389 229.28094046 -39.3125 228.375 C-36.73221128 227.06597401 -36.73221128 227.06597401 -35 224 C-34.80014652 221.23453551 -34.71666835 218.56955708 -34.7253418 215.8034668 C-34.72023087 214.96720261 -34.71511993 214.13093842 -34.70985413 213.26933289 C-34.6959228 210.49588916 -34.69691937 207.72269339 -34.69921875 204.94921875 C-34.69533007 203.01406258 -34.69099504 201.07890727 -34.68623352 199.14375305 C-34.67876103 195.07749679 -34.67906734 191.01132729 -34.68432617 186.94506836 C-34.69008276 181.7684811 -34.67328779 176.59225609 -34.6499815 171.41572857 C-34.6351364 167.41162585 -34.63438767 163.40760781 -34.63749123 159.40348244 C-34.6369821 157.49756981 -34.63182224 155.59165192 -34.62167931 153.68576622 C-34.55616224 139.6364389 -34.93086029 126.19531234 -42 113.625 C-46.41296671 105.4792607 -49.46982691 98.64998823 -49.43359375 89.25 C-49.4388356 88.43362061 -49.44407745 87.61724121 -49.44947815 86.77612305 C-49.45586603 85.05502449 -49.45460354 83.3338821 -49.44604492 81.61279297 C-49.43761118 79.03399719 -49.46621568 76.45747965 -49.49804688 73.87890625 C-49.55830059 60.07765598 -47.85423044 46.88909392 -41.1875 34.5625 C-40.84058105 33.89911621 -40.49366211 33.23573242 -40.13623047 32.55224609 C-37.28087135 27.2311912 -34.07586762 22.47248414 -30 18 C-28.92685547 16.78957031 -28.92685547 16.78957031 -27.83203125 15.5546875 C-23.22764535 10.64234104 -18.32893007 6.54505409 -12.75 2.8125 C-12.1717749 2.41353516 -11.5935498 2.01457031 -10.99780273 1.60351562 C-6.94626954 -0.9784863 -4.56774641 -1.46972882 0 0 Z " fill="yellow" transform="translate(260,33)"/>
<path d="M0 0 C4.16422821 4.16422821 6 7.04562074 6 13 C5.18850344 17.80368655 3.39134687 21.08205543 -0.375 24.1875 C-17.93829852 36.01452854 -41.32721263 36.17855676 -61.625 34.125 C-62.41269775 34.04660889 -63.20039551 33.96821777 -64.01196289 33.88745117 C-69.44282771 33.29636362 -74.6925171 32.288531 -80 31 C-79.57001709 30.46818115 -79.14003418 29.9363623 -78.69702148 29.38842773 C-73.42386498 22.79165181 -70.07154448 16.66558488 -71 8 C-72.48281576 1.77217382 -75.60124403 -2.44465402 -80 -7 C-78.16830682 -7.48539869 -76.33453941 -7.96297186 -74.5 -8.4375 C-73.4790625 -8.70433594 -72.458125 -8.97117187 -71.40625 -9.24609375 C-50.38436791 -13.8988727 -17.70246656 -14.33056817 0 0 Z " fill="yellow" transform="translate(348,438)"/>
<path d="M0 0 C0.99 0.99 0.99 0.99 2 2 C1.51789063 2.50789063 1.03578125 3.01578125 0.5390625 3.5390625 C-4.12602674 8.62305771 -6.57015599 12.27468525 -7.375 19.25 C-6.58913486 27.10865145 -3.38073132 33.32033917 2 39 C-7.35093911 41.05643059 -16.40992524 42.60402272 -26 43 C-26.86496094 43.04125 -27.72992188 43.0825 -28.62109375 43.125 C-45.41540416 43.53399386 -65.40444205 41.66892121 -79 31 C-82.59114785 26.88331832 -83.90401436 23.47118155 -84 18 C-82.05420928 11.06812057 -78.06068362 7.34758272 -72 3.84375 C-51.30169255 -6.20101685 -21.8653614 -5.78476794 0 0 Z " fill="yellow" transform="translate(242,430)"/>
<path d="M0 0 C1.90625 0.484375 1.90625 0.484375 4.40625 2.609375 C6.16209708 5.97474856 6.54281938 7.74452991 5.90625 11.484375 C3.83729835 14.42865235 2.39715073 15.32770455 -1.03125 16.421875 C-4.69247681 16.49659391 -6.2242174 15.69801444 -9.09375 13.484375 C-10.52037219 10.63113063 -10.40408868 8.64982951 -10.09375 5.484375 C-7.60378974 0.71195116 -5.15439468 -0.34619069 0 0 Z " fill="yellow" transform="translate(258.09375,441.515625)"/>
</svg>
