<?xml version="1.0" encoding="UTF-8"?>
<svg version="1.1" xmlns="http://www.w3.org/2000/svg" width="512" height="512">
<path d="M0 0 C0.76892075 0.00719055 1.53784149 0.0143811 2.33006287 0.02178955 C3.13990128 0.0214975 3.94973969 0.02120544 4.78411865 0.02090454 C7.46799842 0.02230083 10.15160253 0.03787598 12.83543396 0.05352783 C14.69345447 0.0572569 16.55147694 0.06010437 18.40950012 0.06210327 C23.3053376 0.0697481 28.20105685 0.08940384 33.09684753 0.11151123 C38.09042257 0.1319514 43.08401667 0.14110107 48.07762146 0.15118408 C57.8797568 0.17264896 67.68180431 0.20679511 77.48387146 0.24884033 C79.13303828 3.86499368 79.72558242 6.63944577 79.68400574 10.60423279 C79.67512329 12.19576172 79.67512329 12.19576172 79.6660614 13.81944275 C79.64944458 14.97329971 79.63282776 16.12715668 79.6157074 17.315979 C79.60168884 19.151035 79.60168884 19.151035 79.58738708 21.02316284 C79.56638714 23.67947962 79.54186124 26.33551334 79.51194 28.9917202 C79.46566796 33.19962988 79.43916141 37.40752081 79.41654968 41.61561584 C79.34980873 53.58027511 79.26673039 65.54465381 79.14109802 77.5088501 C79.07183636 84.12056887 79.02435843 90.73207852 79.00068116 97.34412175 C78.98719598 100.83798587 78.96251903 104.33096209 78.91062164 107.82448387 C78.85263546 111.72795675 78.84186017 115.63081709 78.8344574 119.534729 C78.80974365 120.67846481 78.78502991 121.82220062 78.75956726 123.00059509 C78.81835623 134.79772972 84.65188214 141.97338152 92.67137146 150.06134033 C96.49754855 153.96764678 99.69688732 157.52373783 102.48387146 162.24884033 C104.39910257 164.49630908 106.43874081 166.61973089 108.48387146 168.74884033 C114.08128847 174.57610297 114.08128847 174.57610297 115.96824646 177.72930908 C118.103858 181.27948807 120.88275669 184.07372525 123.73387146 187.06134033 C124.90517248 188.3067497 126.07575119 189.55283882 127.24559021 190.79962158 C128.085495 191.6922168 128.085495 191.6922168 128.94236755 192.60284424 C133.60302266 197.57942591 137.78453625 202.50849259 141.48387146 208.24884033 C142.79930425 209.92967112 144.12703395 211.60125193 145.48387146 213.24884033 C144.08623922 216.74292093 142.89887568 217.77584428 139.48387146 219.24884033 C132.5579884 221.48780621 125.66131005 221.51379248 118.44871521 221.44415283 C116.76981956 221.43990799 116.76981956 221.43990799 115.05700684 221.43557739 C111.51168241 221.42445765 107.96661845 221.39936823 104.42137146 221.37384033 C102.00535951 221.36379993 99.58934356 221.35467594 97.17332458 221.34649658 C91.2767526 221.32454523 85.38033065 221.29115012 79.48387146 221.24884033 C79.36791589 229.63734503 79.27912606 238.02551377 79.2248106 246.41462231 C79.19873893 250.31025224 79.16338719 254.20533306 79.10667419 258.10064697 C79.05226482 261.86136059 79.02243263 265.62154678 79.00948524 269.38262367 C79.00026111 270.81598525 78.98224775 272.24931862 78.95522118 273.68245506 C78.91882387 275.6928214 78.91682819 277.7037208 78.91624451 279.7144165 C78.89958992 281.42983894 78.89958992 281.42983894 78.88259888 283.17991638 C79.67118752 287.20491045 81.4221588 288.61366932 84.48387146 291.24884033 C85.30887146 292.11509033 86.13387146 292.98134033 86.98387146 293.87384033 C89.29453981 296.25642046 89.29453981 296.25642046 91.70262146 297.52227783 C95.96818458 300.1702819 99.55984132 303.54681367 103.31199646 306.86602783 C106.57115132 309.71424577 109.74503487 312.04592516 113.48387146 314.24884033 C115.24738759 315.70830195 116.9764086 317.21029613 118.67137146 318.74884033 C119.53117615 319.52227783 120.39098083 320.29571533 121.27684021 321.09259033 C124.49568099 324.23736929 125.44551541 325.65884462 125.74266052 330.22955322 C125.75586958 331.89348347 125.75739209 333.55753263 125.74949646 335.22149658 C125.75140991 336.10035019 125.75332336 336.9792038 125.7552948 337.88468933 C125.75665531 339.74150886 125.75296821 341.59833793 125.74461365 343.45513916 C125.73389942 346.30390669 125.74451997 349.15204541 125.75730896 352.00079346 C125.75598759 353.80352923 125.75342567 355.60626461 125.74949646 357.40899658 C125.75354492 358.26421402 125.75759338 359.11943146 125.76176453 360.00056458 C125.71379764 366.01891415 125.71379764 366.01891415 123.48387146 368.24884033 C116.23376256 369.77667608 108.50124259 369.3815236 101.13230896 369.34649658 C99.9922641 369.34508163 98.85221924 369.34366669 97.67762756 369.34220886 C94.07134773 369.33665512 90.46513222 369.3241114 86.85887146 369.31134033 C84.39923695 369.30631935 81.93960145 369.30175749 79.47996521 369.29766846 C73.4812457 369.28670089 67.48256318 369.27000947 61.48387146 369.24884033 C61.30428894 369.93010986 61.12470642 370.61137939 60.93968201 371.31329346 C60.69000671 372.20983643 60.44033142 373.10637939 60.18309021 374.03009033 C59.82090393 375.36136963 59.82090393 375.36136963 59.45140076 376.71954346 C57.87961662 380.82847196 55.25030177 383.10197506 51.48387146 385.24884033 C48.84402098 386.28894142 46.2855089 386.83636216 43.48387146 387.24884033 C42.79937927 387.35841064 42.11488708 387.46798096 41.40965271 387.58087158 C35.12132603 388.47920397 29.53845646 388.48446946 23.35887146 386.99884033 C22.34566833 386.76680908 21.33246521 386.53477783 20.28855896 386.29571533 C17.0202535 385.07579073 15.72880334 383.90483179 13.48387146 381.24884033 C12.21824646 378.23321533 12.21824646 378.23321533 11.23387146 374.99884033 C10.89871521 373.92118408 10.56355896 372.84352783 10.21824646 371.73321533 C9.97590271 370.91337158 9.73355896 370.09352783 9.48387146 369.24884033 C-8.86453398 368.46245022 -27.14992588 368.10556103 -45.51612854 368.24884033 C-48.06421547 364.38736589 -47.89137794 360.29242374 -47.95753479 355.82696533 C-47.97130661 355.0081488 -47.98507843 354.18933228 -47.99926758 353.34570312 C-48.02250926 351.61426513 -48.03979013 349.88273827 -48.05152893 348.15118408 C-48.07840634 345.52058754 -48.15331762 342.89404619 -48.22901917 340.26446533 C-48.45373149 326.16589102 -48.45373149 326.16589102 -44.45362854 321.46759033 C-43.1796704 320.34918205 -41.86605629 319.2742678 -40.51612854 318.24884033 C-39.2613776 317.09110873 -38.01005385 315.92965148 -36.76222229 314.76446533 C-35.4976588 313.67015654 -34.2281196 312.58157071 -32.95362854 311.49884033 C-32.32005432 310.94841064 -31.6864801 310.39798096 -31.03370667 309.83087158 C-27.35080895 306.66760001 -23.58021151 303.91623711 -19.51612854 301.24884033 C-17.53908961 299.73667977 -15.60057293 298.17283482 -13.70362854 296.56134033 C-12.74843323 295.77372314 -11.79323792 294.98610596 -10.80909729 294.17462158 C-5.55151776 287.46605758 -7.38632811 275.96430929 -7.41847229 267.80743408 C-7.42034126 266.43024243 -7.4217629 265.0530501 -7.42276001 263.67585754 C-7.42654751 260.08055735 -7.43634486 256.48529864 -7.44746399 252.89001465 C-7.45775985 249.20949871 -7.46227501 245.52897595 -7.46730042 241.84844971 C-7.47797115 234.64856117 -7.49500136 227.4487066 -7.51612854 220.24884033 C-8.20215652 220.25550217 -8.88818451 220.262164 -9.59500122 220.26902771 C-16.74908247 220.33550933 -23.90307564 220.38069441 -31.05738831 220.41363525 C-33.72585926 220.42700394 -36.39384572 220.44915638 -39.06227112 220.47515869 C-42.90242106 220.51163618 -46.74224292 220.52858892 -50.58253479 220.54180908 C-52.36573875 220.56503487 -52.36573875 220.56503487 -54.18496704 220.58872986 C-61.26749241 220.59016195 -66.89874133 220.3994679 -72.45362854 215.56134033 C-72.80425354 215.12821533 -73.15487854 214.69509033 -73.51612854 214.24884033 C-72.1071228 209.76564025 -69.8417803 207.49337864 -66.51612854 204.24884033 C-66.05077698 203.46509033 -65.58542542 202.68134033 -65.10597229 201.87384033 C-62.96746203 198.34293396 -60.25470744 195.54337218 -57.45362854 192.53009033 C-55.47784036 190.3395744 -55.47784036 190.3395744 -54.16847229 187.93243408 C-51.86883048 184.19755483 -48.99290541 181.07728413 -46.07862854 177.81134033 C-42.19221452 173.45278603 -38.72516357 169.14397851 -35.51612854 164.24884033 C-33.53989572 161.93881003 -31.48693651 159.72220553 -29.41847229 157.49493408 C-27.45790316 155.30590044 -27.45790316 155.30590044 -26.05128479 152.78399658 C-23.75122552 148.98567988 -20.69893216 145.9771642 -17.67237854 142.74884033 C-15.60248992 140.34896946 -14.1167012 137.97321933 -12.51612854 135.24884033 C-11.84126907 134.52068619 -11.16640961 133.79253204 -10.47109985 133.04231262 C-8.00210798 129.51435272 -7.92168732 127.34072018 -7.76783752 123.05328369 C-7.72465598 121.95618403 -7.72465598 121.95618403 -7.68060207 120.83692074 C-7.34487704 110.88295179 -7.42195628 100.91365918 -7.47152901 90.95581245 C-7.48914256 87.30356063 -7.49928531 83.65135374 -7.50744629 79.99906921 C-7.53172806 69.62940244 -7.56780908 59.25979781 -7.61207581 48.89019775 C-7.6387728 42.51641671 -7.65586385 36.14266908 -7.6669445 29.7688427 C-7.67316217 27.34502851 -7.68317722 24.92122104 -7.69702339 22.49743843 C-7.71612416 19.13010419 -7.72311786 15.76294973 -7.72731018 12.39556885 C-7.73607178 11.39153519 -7.74483337 10.38750153 -7.75386047 9.3530426 C-7.7525563 8.44088989 -7.75125214 7.52873718 -7.74990845 6.58894348 C-7.75462205 5.39700048 -7.75462205 5.39700048 -7.75943089 4.18097782 C-7.1771668 -0.44295737 -3.86668199 0.01516248 0 0 Z " fill="grey" transform="translate(218.51612854003906,111.75115966796875)"/>
<path d="M0 0 C22.54413178 16.1336821 26.94794088 45.9967893 31.421875 71.40234375 C31.61394531 72.45131836 31.80601562 73.50029297 32.00390625 74.58105469 C32.17019531 75.56235352 32.33648437 76.54365234 32.5078125 77.5546875 C32.66040527 78.42988037 32.81299805 79.30507324 32.97021484 80.20678711 C33.046875 82.46484375 33.046875 82.46484375 31.046875 85.46484375 C28.35483352 85.75120305 25.89367944 85.84319519 23.20068359 85.80541992 C22.39084518 85.805858 21.58100677 85.80629608 20.74662781 85.80674744 C18.06261306 85.80465289 15.37921848 85.78129092 12.6953125 85.7578125 C10.83729392 85.7522189 8.97927092 85.74794769 7.12124634 85.74494934 C2.22534011 85.73348194 -2.67030012 85.70399855 -7.56610107 85.6708374 C-12.55965577 85.64017727 -17.55325335 85.6264527 -22.546875 85.61132812 C-32.34907536 85.5791306 -42.15107808 85.52791146 -51.953125 85.46484375 C-52.73852369 81.83118799 -52.97683024 78.95532998 -52.53515625 75.25390625 C-52.4172876 74.26358398 -52.29941895 73.27326172 -52.17797852 72.25292969 C-52.04190186 71.20911133 -51.9058252 70.16529297 -51.765625 69.08984375 C-51.62761475 68.01508789 -51.48960449 66.94033203 -51.34741211 65.83300781 C-50.20991958 57.45068873 -48.50221703 49.54185183 -45.953125 41.46484375 C-45.66824219 40.47097656 -45.38335937 39.47710937 -45.08984375 38.453125 C-40.377209 22.90350639 -32.48480449 6.42688791 -17.703125 -1.78515625 C-11.41219889 -3.50086337 -5.72837196 -3.21934504 0 0 Z " fill="grey" transform="translate(264.953125,10.53515625)"/>
</svg>
