<?xml version="1.0" encoding="UTF-8"?>
<svg version="1.1" xmlns="http://www.w3.org/2000/svg" width="512" height="512">
<path d="M0 0 C1.76204018 -0.00956978 1.76204018 -0.00956978 3.55967712 -0.01933289 C5.4783535 -0.02100212 5.4783535 -0.02100212 7.43579102 -0.02270508 C8.73919937 -0.02603348 10.04260773 -0.02936188 11.38551331 -0.03279114 C14.14878161 -0.03878833 16.91201861 -0.04063044 19.67529297 -0.04003906 C23.220882 -0.03993742 26.76627084 -0.05358863 30.3118124 -0.07081127 C33.68647526 -0.08458646 37.06110036 -0.08401955 40.43579102 -0.08520508 C42.35143105 -0.09598335 42.35143105 -0.09598335 44.30577087 -0.10697937 C46.07253929 -0.10236443 46.07253929 -0.10236443 47.875 -0.09765625 C48.91567123 -0.09908127 49.95634247 -0.10050629 51.02854919 -0.10197449 C53.50219727 0.14526367 53.50219727 0.14526367 55.50219727 2.14526367 C55.69202873 4.68366324 55.75736588 7.11051481 55.73266602 9.64916992 C55.73257034 10.42235062 55.73247467 11.19553131 55.7323761 11.99214172 C55.72860595 14.56416397 55.70950822 17.13581846 55.68969727 19.70776367 C55.68280687 21.51456565 55.67630241 23.32136913 55.67016602 25.12817383 C55.60973717 37.76322121 55.34229296 50.39006669 55.00219727 63.02026367 C54.41353624 84.94846494 54.27202554 106.83764644 54.72875977 128.77026367 C54.75042206 129.81266205 54.77208435 130.85506042 54.79440308 131.92904663 C54.88671298 136.34580701 54.97910643 140.76256315 55.07440186 145.17926025 C55.39227577 160.19819496 55.54358279 175.20941801 55.53344727 190.23120117 C55.5326844 191.44500804 55.5326844 191.44500804 55.53190613 192.68333626 C55.52532032 200.74647278 55.50737144 208.80952209 55.47414398 216.87259293 C55.46244713 219.87955546 55.4543564 222.8865221 55.44676208 225.89349747 C55.43986595 227.97329763 55.42725554 230.05301131 55.41442871 232.13278198 C55.41116577 233.38157135 55.40790283 234.63036072 55.40454102 235.91699219 C55.39668579 237.54798607 55.39668579 237.54798607 55.38867188 239.21192932 C55.49546148 241.97122045 55.8741966 244.46141839 56.50219727 247.14526367 C57.09387695 247.26256836 57.68555664 247.37987305 58.29516602 247.50073242 C60.60516309 248.17533334 61.92180403 248.99856435 63.81469727 250.45776367 C66.64311136 252.55955759 69.53868021 254.335475 72.61938477 256.05541992 C83.1787954 262.1676099 93.15840272 268.79551581 96.50219727 281.14526367 C96.54907227 284.42260742 96.54907227 284.42260742 96.25219727 288.08276367 C96.20063477 288.75662109 96.14907227 289.43047852 96.09594727 290.12475586 C95.91205176 292.46628894 95.70790649 294.80554885 95.50219727 297.14526367 C95.34049143 299.05800318 95.17904549 300.97076467 95.01782227 302.88354492 C94.67938165 306.85706449 94.3309159 310.82953613 93.97485352 314.80151367 C93.52083017 319.87662395 93.11666667 324.95380819 92.74829102 330.03588867 C92.50219727 332.14526367 92.50219727 332.14526367 91.50219727 335.14526367 C86.50335832 333.07027392 83.03468943 329.12102549 79.15844727 325.45776367 C76.88423982 323.47786542 75.20509493 322.34655152 72.50219727 321.14526367 C71.41745117 320.46657227 71.41745117 320.46657227 70.31079102 319.77416992 C51.19383737 308.68686857 29.14798588 304.75307434 7.50219727 310.14526367 C-4.95267669 313.66696645 -16.42001309 318.39837079 -27.49780273 325.14526367 C-28.15522461 325.54487305 -28.81264648 325.94448242 -29.48999023 326.35620117 C-32.87579727 328.44950096 -36.16511441 330.59877622 -39.37280273 332.95776367 C-42.49780273 335.14526367 -42.49780273 335.14526367 -44.49780273 335.14526367 C-44.55315186 334.09661133 -44.60850098 333.04795898 -44.66552734 331.9675293 C-44.87326325 328.04614827 -45.08476787 324.12497775 -45.29736328 320.20385742 C-45.3885478 318.5125056 -45.47873451 316.82109966 -45.56787109 315.12963867 C-45.69678384 312.68677819 -45.8293825 310.2441402 -45.96264648 307.80151367 C-46.00123276 307.0553479 -46.03981903 306.30918213 -46.07957458 305.54040527 C-46.34803755 300.70299834 -46.87050004 295.94925825 -47.49780273 291.14526367 C-48.34628003 277.03117013 -48.34628003 277.03117013 -44.49780273 271.14526367 C-39.35104202 265.76791332 -34.02546783 261.64222712 -27.49780273 258.14526367 C-24.97183637 256.42660781 -22.48753029 254.65576748 -20.00170898 252.87963867 C-17.11892303 250.88282594 -14.14550357 249.10452131 -11.09155273 247.38354492 C-9.08935188 245.82791338 -8.47474862 244.47784258 -7.49780273 242.14526367 C-7.19948462 240.08120155 -7.19948462 240.08120155 -7.23888302 237.89207935 C-7.23203422 237.04523352 -7.22518543 236.1983877 -7.2181291 235.32587987 C-7.22205438 233.93780229 -7.22205438 233.93780229 -7.22605896 232.52168274 C-7.22097212 231.53483449 -7.21588529 230.54798623 -7.2106443 229.53123349 C-7.19594881 226.21544448 -7.19544925 222.8998037 -7.19482422 219.58398438 C-7.18716547 217.21065989 -7.17861957 214.83733813 -7.16925049 212.46401978 C-7.14856778 206.68231551 -7.13690766 200.90064267 -7.12896042 195.11890808 C-7.11911429 188.39042113 -7.09721643 181.66198993 -7.07432605 174.93353667 C-7.03373077 162.93308258 -7.00126665 150.93262159 -6.97460938 138.93212891 C-6.97301207 138.21391506 -6.97141477 137.49570122 -6.96976907 136.75572332 C-6.96817017 136.03658753 -6.96657127 135.31745174 -6.96492392 134.57652396 C-6.94222089 124.37343855 -6.91758959 114.17036023 -6.890625 103.96728516 C-6.88872885 103.24903552 -6.88683271 102.53078588 -6.8848791 101.7907711 C-6.85314431 89.83170784 -6.81739952 77.8726585 -6.77958351 65.91361302 C-6.75444431 57.87381173 -6.73519326 49.83402132 -6.72020137 41.79419482 C-6.71003371 36.80543518 -6.69588835 31.81669242 -6.6807251 26.82794571 C-6.67454328 24.5046713 -6.67009882 22.18139157 -6.66746712 19.85811043 C-6.66368534 16.70133986 -6.65389837 13.54464476 -6.64256287 10.38789368 C-6.642949 9.45581646 -6.64333513 8.52373924 -6.64373296 7.56341726 C-6.6056242 0.02421377 -6.6056242 0.02421377 0 0 Z " fill="red" transform="translate(232.497802734375,174.854736328125)"/>
<path d="M0 0 C2.40427064 2.84950594 3.18981823 5.58719641 3.90234375 9.16015625 C4.88523539 13.73344165 6.30979116 18.03643674 7.875 22.4375 C10.71833157 30.7118273 12.71234275 38.9976319 14.48046875 47.55615234 C15.23945359 51.12637709 16.07546938 54.67774638 16.90478516 58.23217773 C20.55849076 73.95504672 23.2398808 89.48901675 24.76171875 105.55859375 C24.99997042 107.99969696 25.26210841 110.43712326 25.53125 112.875 C26.51619908 121.92791993 27.24494671 130.96590295 27.6875 140.0625 C27.73592041 141.00907471 27.78434082 141.95564941 27.83422852 142.9309082 C27.89114868 144.25094849 27.89114868 144.25094849 27.94921875 145.59765625 C27.98362061 146.37633057 28.01802246 147.15500488 28.0534668 147.95727539 C28 150 28 150 27 153 C21.15712842 154.26166435 15.379006 154.14407153 9.43359375 154.1328125 C8.32194351 154.13376923 7.21029327 154.13472595 6.06495667 154.13571167 C3.7207941 154.13639062 1.37662963 154.13455623 -0.9675293 154.13037109 C-4.5532656 154.1250138 -8.13887693 154.13032838 -11.72460938 154.13671875 C-14.00520861 154.13605802 -16.28580777 154.13477696 -18.56640625 154.1328125 C-19.63734024 154.13483673 -20.70827423 154.13686096 -21.81166077 154.13894653 C-22.81297531 154.13579437 -23.81428986 154.13264221 -24.84594727 154.12939453 C-25.7227565 154.12859894 -26.59956573 154.12780334 -27.50294495 154.12698364 C-30.08708397 153.99557149 -32.47907918 153.56939687 -35 153 C-34.18030685 118.49291754 -34.18030685 118.49291754 -32 102 C-31.86190918 100.95360352 -31.72381836 99.90720703 -31.58154297 98.82910156 C-29.68055854 84.72996575 -27.46493438 70.80136957 -24 57 C-23.7431543 55.96842773 -23.48630859 54.93685547 -23.22167969 53.87402344 C-20.1563211 41.63010543 -16.98508121 29.46387952 -13.05078125 17.46875 C-11.65634432 12.86555299 -10.72222398 8.20767263 -9.87109375 3.4765625 C-9 1 -9 1 -7.0703125 -0.35546875 C-4.25084482 -1.23322756 -2.75678135 -1.06030052 0 0 Z " fill="red" transform="translate(260,14)"/>
</svg>
